HIERARCHY
ROOT Hips
{
	OFFSET 0.000000 0.000000 0.000000
	CHANNELS 6 Xposition Yposition Zposition Zrotation Yrotation Xrotation 
	JOINT Spine1
	{
		OFFSET 0.000000 10.000000 0.000000
		CHANNELS 3 Zrotation Yrotation Xrotation
		JOINT Spine2
		{
			OFFSET 0.000000 10.000000 0.000000
			CHANNELS 3 Zrotation Yrotation Xrotation
			JOINT Spine3
			{
				OFFSET 0.000000 10.000000 0.000000
				CHANNELS 3 Zrotation Yrotation Xrotation
				JOINT Spine4
				{
					OFFSET 0.000000 10.000000 0.000000
					CHANNELS 3 Zrotation Yrotation Xrotation
					End Site
					{
						OFFSET 0.000000 0.000000 0.000000
					}
				}
			}
		}
	}
}
MOTION
Frames: 67
Frame Time: 0.033333
0.000000 0.000000 0.000000 -5.124648 -11.242146 -16.195155 33.284696 -13.275498 23.201299 48.129750 -9.587931 45.968038 32.035845 -2.697957 34.524364 0.000000 0.000000 0.000000 
0.000000 0.000000 0.000000 -5.124691 -11.241910 -16.195027 33.285161 -13.275152 23.201671 48.130472 -9.587521 45.968537 32.036276 -2.697689 34.524676 0.000000 0.000000 0.000000 
0.000000 0.000000 0.000000 -5.124727 -11.241717 -16.194922 33.285605 -13.274857 23.202024 48.131159 -9.587155 45.969029 32.036684 -2.697441 34.524986 0.000000 0.000000 0.000000 
0.000000 0.000000 0.000000 -5.124757 -11.241563 -16.194839 33.286029 -13.274610 23.202361 48.131810 -9.586831 45.969511 32.037071 -2.697213 34.525295 0.000000 0.000000 0.000000 
0.000000 0.000000 0.000000 -5.124781 -11.241445 -16.194776 33.286433 -13.274406 23.202681 48.132426 -9.586545 45.969983 32.037435 -2.697004 34.525599 0.000000 0.000000 0.000000 
0.000000 0.000000 0.000000 -5.124799 -11.241358 -16.194731 33.286817 -13.274242 23.202983 48.133008 -9.586295 45.970443 32.037779 -2.696812 34.525899 0.000000 0.000000 0.000000 
0.000000 0.000000 0.000000 -5.124813 -11.241301 -16.194702 33.287181 -13.274114 23.203270 48.133558 -9.586078 45.970891 32.038102 -2.696637 34.526193 0.000000 0.000000 0.000000 
0.000000 0.000000 0.000000 -5.124823 -11.241270 -16.194688 33.287526 -13.274019 23.203541 48.134075 -9.585892 45.971325 32.038406 -2.696477 34.526481 0.000000 0.000000 0.000000 
0.000000 0.000000 0.000000 -5.124828 -11.241263 -16.194687 33.287853 -13.273954 23.203797 48.134561 -9.585733 45.971746 32.038690 -2.696331 34.526761 0.000000 0.000000 0.000000 
0.000000 0.000000 0.000000 -5.124830 -11.241276 -16.194697 33.288161 -13.273915 23.204037 48.135017 -9.585601 45.972152 32.038957 -2.696200 34.527034 0.000000 0.000000 0.000000 
0.000000 0.000000 0.000000 -5.124829 -11.241308 -16.194717 33.288452 -13.273900 23.204264 48.135445 -9.585491 45.972543 32.039205 -2.696081 34.527299 0.000000 0.000000 0.000000 
0.000000 0.000000 0.000000 -5.124824 -11.241357 -16.194747 33.288726 -13.273906 23.204476 48.135844 -9.585403 45.972919 32.039437 -2.695975 34.527554 0.000000 0.000000 0.000000 
0.000000 0.000000 0.000000 -5.124817 -11.241419 -16.194784 33.288983 -13.273932 23.204675 48.136217 -9.585335 45.973280 32.039653 -2.695879 34.527801 0.000000 0.000000 0.000000 
0.000000 0.000000 0.000000 -5.124808 -11.241494 -16.194827 33.289224 -13.273974 23.204861 48.136565 -9.585284 45.973625 32.039853 -2.695794 34.528039 0.000000 0.000000 0.000000 
0.000000 0.000000 0.000000 -5.124796 -11.241580 -16.194877 33.289450 -13.274031 23.205035 48.136888 -9.585250 45.973955 32.040039 -2.695719 34.528268 0.000000 0.000000 0.000000 
0.000000 0.000000 0.000000 -5.124783 -11.241675 -16.194931 33.289661 -13.274101 23.205197 48.137187 -9.585229 45.974270 32.040210 -2.695653 34.528487 0.000000 0.000000 0.000000 
0.000000 0.000000 0.000000 -5.124769 -11.241777 -16.194990 33.289858 -13.274182 23.205347 48.137465 -9.585222 45.974570 32.040368 -2.695595 34.528697 0.000000 0.000000 0.000000 
0.000000 0.000000 0.000000 -5.124752 -11.241886 -16.195052 33.290041 -13.274272 23.205487 48.137721 -9.585227 45.974855 32.040514 -2.695545 34.528897 0.000000 0.000000 0.000000 
0.000000 0.000000 0.000000 -5.124735 -11.242000 -16.195116 33.290212 -13.274370 23.205616 48.137958 -9.585241 45.975125 32.040648 -2.695502 34.529089 0.000000 0.000000 0.000000 
0.000000 0.000000 0.000000 -5.124717 -11.242118 -16.195183 33.290370 -13.274475 23.205736 48.138175 -9.585265 45.975381 32.040770 -2.695465 34.529271 0.000000 0.000000 0.000000 
0.000000 0.000000 0.000000 -5.124698 -11.242239 -16.195251 33.290517 -13.274586 23.205847 48.138375 -9.585297 45.975624 32.040882 -2.695435 34.529443 0.000000 0.000000 0.000000 
0.000000 0.000000 0.000000 -5.124679 -11.242362 -16.195320 33.290652 -13.274700 23.205948 48.138557 -9.585335 45.975852 32.040984 -2.695410 34.529607 0.000000 0.000000 0.000000 
0.000000 0.000000 0.000000 -5.124659 -11.242486 -16.195389 33.290777 -13.274818 23.206042 48.138724 -9.585380 45.976067 32.041076 -2.695390 34.529762 0.000000 0.000000 0.000000 
0.000000 0.000000 0.000000 -5.124639 -11.242611 -16.195459 33.290891 -13.274939 23.206127 48.138876 -9.585430 45.976270 32.041160 -2.695375 34.529909 0.000000 0.000000 0.000000 
0.000000 0.000000 0.000000 -5.124618 -11.242735 -16.195528 33.290997 -13.275061 23.206206 48.139013 -9.585484 45.976460 32.041235 -2.695363 34.530047 0.000000 0.000000 0.000000 
0.000000 0.000000 0.000000 -5.124598 -11.242859 -16.195597 33.291093 -13.275183 23.206277 48.139137 -9.585541 45.976638 32.041303 -2.695356 34.530178 0.000000 0.000000 0.000000 
0.000000 0.000000 0.000000 -5.124577 -11.242981 -16.195665 33.291181 -13.275306 23.206342 48.139249 -9.585602 45.976804 32.041363 -2.695352 34.530300 0.000000 0.000000 0.000000 
0.000000 0.000000 0.000000 -5.124557 -11.243102 -16.195732 33.291261 -13.275428 23.206400 48.139350 -9.585665 45.976960 32.041417 -2.695351 34.530415 0.000000 0.000000 0.000000 
0.000000 0.000000 0.000000 -5.124537 -11.243221 -16.195798 33.291334 -13.275549 23.206453 48.139439 -9.585730 45.977105 32.041464 -2.695353 34.530523 0.000000 0.000000 0.000000 
0.000000 0.000000 0.000000 -5.124517 -11.243337 -16.195862 33.291400 -13.275668 23.206501 48.139519 -9.585796 45.977240 32.041506 -2.695357 34.530623 0.000000 0.000000 0.000000 
0.000000 0.000000 0.000000 -5.124497 -11.243451 -16.195925 33.291459 -13.275786 23.206543 48.139589 -9.585862 45.977365 32.041542 -2.695363 34.530717 0.000000 0.000000 0.000000 
0.000000 0.000000 0.000000 -5.124478 -11.243561 -16.195986 33.291512 -13.275901 23.206581 48.139650 -9.585929 45.977481 32.041574 -2.695371 34.530805 0.000000 0.000000 0.000000 
0.000000 0.000000 0.000000 -5.124459 -11.243669 -16.196045 33.291559 -13.276014 23.206614 48.139704 -9.585997 45.977588 32.041600 -2.695381 34.530886 0.000000 0.000000 0.000000 
0.000000 0.000000 0.000000 -5.124441 -11.243772 -16.196102 33.291601 -13.276124 23.206644 48.139750 -9.586063 45.977687 32.041623 -2.695392 34.530961 0.000000 0.000000 0.000000 
0.000000 0.000000 0.000000 -5.124423 -11.243873 -16.196157 33.291639 -13.276231 23.206670 48.139790 -9.586130 45.977778 32.041642 -2.695404 34.531031 0.000000 0.000000 0.000000 
0.000000 0.000000 0.000000 -5.124406 -11.243970 -16.196210 33.291671 -13.276334 23.206692 48.139823 -9.586195 45.977861 32.041657 -2.695417 34.531096 0.000000 0.000000 0.000000 
0.000000 0.000000 0.000000 -5.124389 -11.244063 -16.196261 33.291700 -13.276434 23.206711 48.139850 -9.586260 45.977938 32.041669 -2.695431 34.531155 0.000000 0.000000 0.000000 
0.000000 0.000000 0.000000 -5.124373 -11.244152 -16.196310 33.291725 -13.276531 23.206728 48.139872 -9.586323 45.978007 32.041678 -2.695446 34.531210 0.000000 0.000000 0.000000 
0.000000 0.000000 0.000000 -5.124357 -11.244238 -16.196356 33.291746 -13.276624 23.206741 48.139890 -9.586384 45.978071 32.041685 -2.695461 34.531260 0.000000 0.000000 0.000000 
0.000000 0.000000 0.000000 -5.124342 -11.244320 -16.196401 33.291764 -13.276713 23.206752 48.139903 -9.586444 45.978129 32.041689 -2.695477 34.531306 0.000000 0.000000 0.000000 
0.000000 0.000000 0.000000 -5.124327 -11.244398 -16.196443 33.291778 -13.276799 23.206761 48.139912 -9.586503 45.978181 32.041691 -2.695493 34.531348 0.000000 0.000000 0.000000 
0.000000 0.000000 0.000000 -5.124314 -11.244473 -16.196484 33.291790 -13.276881 23.206768 48.139918 -9.586560 45.978228 32.041691 -2.695509 34.531386 0.000000 0.000000 0.000000 
0.000000 0.000000 0.000000 -5.124300 -11.244544 -16.196522 33.291800 -13.276959 23.206773 48.139920 -9.586614 45.978270 32.041689 -2.695525 34.531420 0.000000 0.000000 0.000000 
0.000000 0.000000 0.000000 -5.124288 -11.244611 -16.196558 33.291807 -13.277034 23.206777 48.139920 -9.586667 45.978307 32.041686 -2.695541 34.531451 0.000000 0.000000 0.000000 
0.000000 0.000000 0.000000 -5.124276 -11.244675 -16.196593 33.291812 -13.277105 23.206779 48.139917 -9.586718 45.978341 32.041682 -2.695558 34.531479 0.000000 0.000000 0.000000 
0.000000 0.000000 0.000000 -5.124264 -11.244735 -16.196625 33.291816 -13.277172 23.206779 48.139912 -9.586767 45.978370 32.041676 -2.695573 34.531505 0.000000 0.000000 0.000000 
0.000000 0.000000 0.000000 -5.124253 -11.244792 -16.196656 33.291818 -13.277236 23.206779 48.139905 -9.586814 45.978396 32.041669 -2.695589 34.531527 0.000000 0.000000 0.000000 
0.000000 0.000000 0.000000 -5.124243 -11.244845 -16.196685 33.291818 -13.277297 23.206777 48.139896 -9.586859 45.978419 32.041662 -2.695605 34.531547 0.000000 0.000000 0.000000 
0.000000 0.000000 0.000000 -5.124233 -11.244896 -16.196712 33.291817 -13.277354 23.206775 48.139886 -9.586902 45.978439 32.041654 -2.695620 34.531564 0.000000 0.000000 0.000000 
0.000000 0.000000 0.000000 -5.124223 -11.244943 -16.196737 33.291814 -13.277408 23.206771 48.139874 -9.586943 45.978455 32.041645 -2.695635 34.531580 0.000000 0.000000 0.000000 
0.000000 0.000000 0.000000 -5.124215 -11.244988 -16.196761 33.291811 -13.277459 23.206767 48.139862 -9.586982 45.978469 32.041635 -2.695649 34.531593 0.000000 0.000000 0.000000 
0.000000 0.000000 0.000000 -5.124206 -11.245029 -16.196783 33.291807 -13.277507 23.206762 48.139848 -9.587019 45.978481 32.041625 -2.695663 34.531605 0.000000 0.000000 0.000000 
0.000000 0.000000 0.000000 -5.124198 -11.245068 -16.196804 33.291802 -13.277551 23.206757 48.139834 -9.587054 45.978491 32.041615 -2.695677 34.531614 0.000000 0.000000 0.000000 
0.000000 0.000000 0.000000 -5.124191 -11.245104 -16.196823 33.291796 -13.277593 23.206751 48.139819 -9.587087 45.978498 32.041605 -2.695690 34.531622 0.000000 0.000000 0.000000 
0.000000 0.000000 0.000000 -5.124184 -11.245138 -16.196841 33.291789 -13.277633 23.206745 48.139804 -9.587118 45.978504 32.041594 -2.695703 34.531629 0.000000 0.000000 0.000000 
0.000000 0.000000 0.000000 -5.124178 -11.245169 -16.196857 33.291783 -13.277669 23.206739 48.139788 -9.587148 45.978508 32.041584 -2.695715 34.531635 0.000000 0.000000 0.000000 
0.000000 0.000000 0.000000 -5.124172 -11.245198 -16.196873 33.291775 -13.277703 23.206732 48.139772 -9.587176 45.978510 32.041573 -2.695727 34.531639 0.000000 0.000000 0.000000 
0.000000 0.000000 0.000000 -5.124166 -11.245225 -16.196887 33.291768 -13.277735 23.206726 48.139756 -9.587202 45.978512 32.041562 -2.695738 34.531642 0.000000 0.000000 0.000000 
0.000000 0.000000 0.000000 -5.124161 -11.245250 -16.196900 33.291760 -13.277764 23.206719 48.139740 -9.587226 45.978512 32.041552 -2.695749 34.531644 0.000000 0.000000 0.000000 
0.000000 0.000000 0.000000 -5.124156 -11.245273 -16.196912 33.291752 -13.277792 23.206712 48.139724 -9.587249 45.978511 32.041541 -2.695759 34.531646 0.000000 0.000000 0.000000 
0.000000 0.000000 0.000000 -5.124151 -11.245293 -16.196923 33.291744 -13.277817 23.206705 48.139708 -9.587271 45.978509 32.041531 -2.695769 34.531646 0.000000 0.000000 0.000000 
0.000000 0.000000 0.000000 -5.124147 -11.245313 -16.196933 33.291736 -13.277840 23.206698 48.139693 -9.587291 45.978506 32.041521 -2.695778 34.531646 0.000000 0.000000 0.000000 
0.000000 0.000000 0.000000 -5.124143 -11.245330 -16.196942 33.291728 -13.277861 23.206691 48.139677 -9.587310 45.978502 32.041511 -2.695787 34.531645 0.000000 0.000000 0.000000 
0.000000 0.000000 0.000000 -5.124140 -11.245346 -16.196950 33.291720 -13.277881 23.206684 48.139662 -9.587327 45.978498 32.041501 -2.695795 34.531644 0.000000 0.000000 0.000000 
0.000000 0.000000 0.000000 -5.124136 -11.245361 -16.196957 33.291712 -13.277899 23.206677 48.139647 -9.587343 45.978494 32.041492 -2.695803 34.531642 0.000000 0.000000 0.000000 
0.000000 0.000000 0.000000 -5.124133 -11.245374 -16.196964 33.291704 -13.277915 23.206670 48.139633 -9.587358 45.978488 32.041483 -2.695811 34.531639 0.000000 0.000000 0.000000 
0.000000 0.000000 0.000000 -5.124131 -11.245386 -16.196970 33.291696 -13.277930 23.206664 48.139619 -9.587372 45.978483 32.041474 -2.695818 34.531637 0.000000 0.000000 0.000000 
